<?xml version="1.0" encoding="utf-8"?>
<!-- Generator: Adobe Illustrator 19.0.0, SVG Export Plug-In . SVG Version: 6.00 Build 0)  -->
<svg version="1.1" id="Layer_1" xmlns="http://www.w3.org/2000/svg" xmlns:xlink="http://www.w3.org/1999/xlink" x="0px" y="0px"
	 viewBox="0 0 152.8 44.1" style="enable-background:new 0 0 152.8 44.1;" xml:space="preserve">
<style type="text/css">
	.st0{clip-path:url(#SVGID_2_);fill:#282929;}
	.st1{clip-path:url(#SVGID_2_);fill:#601F14;}
	.st2{clip-path:url(#SVGID_2_);fill:#DBBC9C;}
	.st3{clip-path:url(#SVGID_2_);fill:#B89266;}
	.st4{clip-path:url(#SVGID_2_);fill:#A57740;}
	.st5{clip-path:url(#SVGID_2_);fill:#A21B1F;}
	.st6{clip-path:url(#SVGID_2_);fill:#C06269;}
	.st7{clip-path:url(#SVGID_2_);fill:#811527;}
	.st8{clip-path:url(#SVGID_2_);fill:#D8AE81;}
	.st9{clip-path:url(#SVGID_2_);fill:#CD9F6E;}
	.st10{clip-path:url(#SVGID_2_);fill:#612F22;}
	.st11{clip-path:url(#SVGID_2_);fill:#7C8254;}
	.st12{clip-path:url(#SVGID_2_);fill:#848354;}
	.st13{clip-path:url(#SVGID_2_);fill:#656932;}
	.st14{clip-path:url(#SVGID_2_);fill:#9A9661;}
</style>
<g>
	<defs>
		<rect id="SVGID_1_" y="0" width="152.8" height="44.2"/>
	</defs>
	<clipPath id="SVGID_2_">
		<use xlink:href="#SVGID_1_"  style="overflow:visible;"/>
	</clipPath>
	<path class="st0" d="M0.1,43.4c0.2,0.1,0.6,0.3,1,0.3C1.6,43.7,2,43.4,2,43c0-0.4-0.2-0.6-0.8-0.8c-0.7-0.2-1.1-0.6-1.1-1.2
		c0-0.6,0.5-1.1,1.3-1.1c0.4,0,0.7,0.1,0.9,0.2l-0.1,0.4c-0.1-0.1-0.4-0.2-0.8-0.2c-0.6,0-0.8,0.3-0.8,0.6c0,0.4,0.3,0.6,0.8,0.8
		c0.7,0.3,1.1,0.6,1.1,1.2c0,0.6-0.5,1.2-1.5,1.2c-0.4,0-0.8-0.1-1.1-0.3L0.1,43.4z"/>
	<path class="st0" d="M11.3,43.9c-0.2,0.1-0.6,0.2-1.1,0.2c-1.2,0-2.1-0.7-2.1-2.1c0-1.3,0.9-2.2,2.2-2.2c0.5,0,0.8,0.1,1,0.2
		l-0.1,0.4c-0.2-0.1-0.5-0.2-0.8-0.2c-1,0-1.6,0.6-1.6,1.7c0,1,0.6,1.7,1.6,1.7c0.3,0,0.7-0.1,0.9-0.2L11.3,43.9z"/>
	<rect x="17.2" y="39.9" class="st0" width="0.5" height="4.2"/>
	<polygon class="st0" points="23.9,39.9 23.9,44.1 26.2,44.1 26.2,43.6 24.4,43.6 24.4,42.1 26,42.1 26,41.7 24.4,41.7 24.4,40.4 
		26.1,40.4 26.1,39.9 	"/>
	<path class="st0" d="M32.1,44.1v-4.2h0.6L34,42c0.3,0.5,0.5,0.9,0.7,1.3l0,0c0-0.6-0.1-1.1-0.1-1.7v-1.7h0.5v4.2h-0.5L33.4,42
		c-0.3-0.5-0.6-0.9-0.8-1.4l0,0c0,0.5,0,1,0,1.7v1.8H32.1z"/>
	<path class="st0" d="M44.2,43.9c-0.2,0.1-0.6,0.2-1.1,0.2c-1.2,0-2.1-0.7-2.1-2.1c0-1.3,0.9-2.2,2.2-2.2c0.5,0,0.8,0.1,1,0.2
		l-0.1,0.4c-0.2-0.1-0.5-0.2-0.8-0.2c-1,0-1.6,0.6-1.6,1.7c0,1,0.6,1.7,1.6,1.7c0.3,0,0.7-0.1,0.9-0.2L44.2,43.9z"/>
	<polygon class="st0" points="50.1,39.9 50.1,44.1 52.4,44.1 52.4,43.6 50.6,43.6 50.6,42.1 52.3,42.1 52.3,41.7 50.6,41.7 
		50.6,40.4 52.4,40.4 52.4,39.9 	"/>
	<rect x="64.8" y="39.9" class="st0" width="0.5" height="4.2"/>
	<path class="st0" d="M71.5,44.1v-4.2h0.6l1.3,2.1c0.3,0.5,0.5,0.9,0.7,1.3l0,0c0-0.6-0.1-1.1-0.1-1.7v-1.7h0.5v4.2h-0.5L72.7,42
		c-0.3-0.5-0.6-0.9-0.8-1.4l0,0c0,0.5,0,1,0,1.7v1.8H71.5z"/>
	<path class="st0" d="M80.7,43.4c0.2,0.1,0.6,0.3,1,0.3c0.5,0,0.9-0.3,0.9-0.7c0-0.4-0.2-0.6-0.8-0.8c-0.7-0.2-1.1-0.6-1.1-1.2
		c0-0.6,0.5-1.1,1.3-1.1c0.4,0,0.7,0.1,0.9,0.2l-0.1,0.4c-0.1-0.1-0.4-0.2-0.8-0.2c-0.6,0-0.8,0.3-0.8,0.6c0,0.4,0.3,0.6,0.8,0.8
		c0.7,0.3,1.1,0.6,1.1,1.2c0,0.6-0.5,1.2-1.5,1.2c-0.4,0-0.8-0.1-1.1-0.3L80.7,43.4z"/>
	<polygon class="st0" points="88.5,39.9 88.5,40.4 89.8,40.4 89.8,44.1 90.3,44.1 90.3,40.4 91.6,40.4 91.6,39.9 	"/>
	<rect x="97.2" y="39.9" class="st0" width="0.5" height="4.2"/>
	<polygon class="st0" points="103.4,39.9 103.4,40.4 104.7,40.4 104.7,44.1 105.2,44.1 105.2,40.4 106.5,40.4 106.5,39.9 	"/>
	<path class="st0" d="M112.7,39.9v2.5c0,0.9,0.4,1.3,1,1.3c0.6,0,1-0.4,1-1.3v-2.5h0.5v2.4c0,1.3-0.7,1.8-1.6,1.8
		c-0.9,0-1.5-0.5-1.5-1.8v-2.4H112.7z"/>
	<polygon class="st0" points="120.8,39.9 120.8,40.4 122.1,40.4 122.1,44.1 122.7,44.1 122.7,40.4 123.9,40.4 123.9,39.9 	"/>
	<polygon class="st0" points="129.6,39.9 129.6,44.1 131.9,44.1 131.9,43.6 130.1,43.6 130.1,42.1 131.7,42.1 131.7,41.7 
		130.1,41.7 130.1,40.4 131.8,40.4 131.8,39.9 	"/>
	<polygon class="st0" points="62,11.3 60,11.3 60,10.6 64.8,10.6 64.8,11.3 62.8,11.3 62.8,17.1 62,17.1 	"/>
	<path class="st0" d="M65.5,10.2h0.9v2.9h0c0.1-0.2,0.3-0.5,0.6-0.6c0.3-0.1,0.6-0.2,0.9-0.2c0.6,0,1.6,0.4,1.6,2v2.8h-0.9v-2.7
		c0-0.8-0.3-1.4-1.1-1.4c-0.6,0-1,0.4-1.1,0.9c0,0.1-0.1,0.2-0.1,0.4v2.8h-0.9V10.2z"/>
	<path class="st0" d="M71.4,14.9c0,1.2,0.8,1.6,1.6,1.6c0.6,0,1-0.1,1.3-0.2l0.1,0.6c-0.3,0.1-0.8,0.3-1.6,0.3c-1.4,0-2.3-1-2.3-2.4
		c0-1.4,0.8-2.5,2.2-2.5c1.5,0,1.9,1.3,1.9,2.2c0,0.2,0,0.3,0,0.4H71.4z M73.9,14.3c0-0.5-0.2-1.4-1.2-1.4c-0.9,0-1.2,0.8-1.3,1.4
		H73.9z"/>
	<path class="st0" d="M78.7,17.1L77,10.6h0.9l0.8,3.3c0.2,0.8,0.4,1.6,0.5,2.3h0c0.1-0.6,0.3-1.4,0.5-2.3l0.9-3.3h0.9l0.8,3.3
		c0.2,0.8,0.4,1.6,0.5,2.2h0c0.1-0.7,0.3-1.4,0.5-2.3l0.9-3.3H85l-1.9,6.5h-0.9l-0.8-3.4c-0.2-0.8-0.3-1.5-0.4-2.1h0
		c-0.1,0.6-0.3,1.3-0.5,2.1l-0.9,3.4H78.7z"/>
	<path class="st0" d="M86,14.9c0,1.2,0.8,1.6,1.6,1.6c0.6,0,1-0.1,1.3-0.2l0.1,0.6c-0.3,0.1-0.8,0.3-1.6,0.3c-1.4,0-2.3-1-2.3-2.4
		c0-1.4,0.8-2.5,2.2-2.5c1.5,0,1.9,1.3,1.9,2.2c0,0.2,0,0.3,0,0.4H86z M88.5,14.3c0-0.5-0.2-1.4-1.2-1.4c-0.9,0-1.2,0.8-1.3,1.4
		H88.5z"/>
	<path class="st0" d="M90.3,16.3c0.3,0.2,0.7,0.3,1.1,0.3c0.6,0,0.9-0.3,0.9-0.7c0-0.4-0.2-0.6-0.9-0.9c-0.8-0.3-1.2-0.8-1.2-1.3
		c0-0.8,0.6-1.4,1.6-1.4c0.5,0,0.9,0.1,1.2,0.3l-0.2,0.6c-0.2-0.1-0.5-0.3-1-0.3c-0.5,0-0.8,0.3-0.8,0.6c0,0.4,0.3,0.6,0.9,0.8
		c0.8,0.3,1.2,0.7,1.2,1.4c0,0.8-0.6,1.4-1.8,1.4c-0.5,0-1-0.1-1.3-0.3L90.3,16.3z"/>
	<path class="st0" d="M95.3,11.3v1.1h1.2v0.6h-1.2v2.5c0,0.6,0.2,0.9,0.6,0.9c0.2,0,0.4,0,0.5-0.1l0,0.6c-0.2,0.1-0.4,0.1-0.8,0.1
		c-0.4,0-0.7-0.1-0.9-0.4c-0.2-0.3-0.3-0.7-0.3-1.2v-2.6h-0.7v-0.6h0.7v-0.9L95.3,11.3z"/>
	<path class="st0" d="M98,14.9c0,1.2,0.8,1.6,1.6,1.6c0.6,0,1-0.1,1.3-0.2l0.1,0.6c-0.3,0.1-0.8,0.3-1.6,0.3c-1.4,0-2.3-1-2.3-2.4
		c0-1.4,0.8-2.5,2.2-2.5c1.5,0,1.9,1.3,1.9,2.2c0,0.2,0,0.3,0,0.4H98z M100.5,14.3c0-0.5-0.2-1.4-1.2-1.4c-0.9,0-1.2,0.8-1.3,1.4
		H100.5z"/>
	<path class="st0" d="M102.4,13.9c0-0.6,0-1,0-1.5h0.7l0,0.9h0c0.2-0.6,0.7-1,1.3-1c0.1,0,0.2,0,0.2,0v0.8c-0.1,0-0.2,0-0.3,0
		c-0.6,0-1,0.5-1.1,1.1c0,0.1,0,0.3,0,0.4v2.5h-0.8V13.9z"/>
	<path class="st0" d="M105.7,13.7c0-0.5,0-0.9,0-1.3h0.8l0,0.8h0c0.2-0.4,0.8-0.9,1.6-0.9c0.6,0,1.7,0.4,1.7,2v2.8h-0.9v-2.7
		c0-0.8-0.3-1.4-1.1-1.4c-0.6,0-1,0.4-1.1,0.9c0,0.1-0.1,0.3-0.1,0.4v2.8h-0.9V13.7z"/>
	<path class="st0" d="M114.3,15.1l-0.7,2.1h-0.9l2.2-6.5h1l2.2,6.5h-0.9l-0.7-2.1H114.3z M116.4,14.4l-0.6-1.9
		c-0.1-0.4-0.2-0.8-0.3-1.2h0c-0.1,0.4-0.2,0.8-0.3,1.2l-0.6,1.9H116.4z"/>
	<path class="st0" d="M123,15.8c0,0.5,0,0.9,0,1.3h-0.8l0-0.8h0c-0.2,0.4-0.7,0.9-1.6,0.9c-0.7,0-1.6-0.4-1.6-2.1v-2.7h0.9V15
		c0,0.9,0.3,1.5,1,1.5c0.6,0,1-0.4,1.1-0.8c0-0.1,0.1-0.3,0.1-0.4v-2.9h0.9V15.8z"/>
	<path class="st0" d="M124.3,16.3c0.3,0.2,0.7,0.3,1.1,0.3c0.6,0,0.9-0.3,0.9-0.7c0-0.4-0.2-0.6-0.9-0.9c-0.8-0.3-1.2-0.8-1.2-1.3
		c0-0.8,0.6-1.4,1.6-1.4c0.5,0,0.9,0.1,1.2,0.3l-0.2,0.6c-0.2-0.1-0.5-0.3-1-0.3c-0.5,0-0.8,0.3-0.8,0.6c0,0.4,0.3,0.6,0.9,0.8
		c0.8,0.3,1.2,0.7,1.2,1.4c0,0.8-0.6,1.4-1.8,1.4c-0.5,0-1-0.1-1.3-0.3L124.3,16.3z"/>
	<path class="st0" d="M129.3,11.3v1.1h1.2v0.6h-1.2v2.5c0,0.6,0.2,0.9,0.6,0.9c0.2,0,0.4,0,0.5-0.1l0,0.6c-0.2,0.1-0.4,0.1-0.8,0.1
		c-0.4,0-0.7-0.1-0.9-0.4c-0.2-0.3-0.3-0.7-0.3-1.2v-2.6h-0.7v-0.6h0.7v-0.9L129.3,11.3z"/>
	<path class="st0" d="M131.6,13.9c0-0.6,0-1,0-1.5h0.7l0,0.9h0c0.2-0.6,0.7-1,1.3-1c0.1,0,0.2,0,0.2,0v0.8c-0.1,0-0.2,0-0.3,0
		c-0.6,0-1,0.5-1.1,1.1c0,0.1,0,0.3,0,0.4v2.5h-0.8V13.9z"/>
	<path class="st0" d="M138,16c0,0.4,0,0.8,0.1,1.1h-0.8l-0.1-0.6h0c-0.3,0.4-0.8,0.7-1.4,0.7c-0.9,0-1.4-0.7-1.4-1.3
		c0-1.1,1-1.8,2.8-1.7V14c0-0.4-0.1-1.1-1.1-1.1c-0.4,0-0.9,0.1-1.2,0.3l-0.2-0.6c0.4-0.3,0.9-0.4,1.5-0.4c1.4,0,1.8,1,1.8,1.9V16z
		 M137.2,14.7c-0.9,0-2,0.1-2,1.1c0,0.6,0.4,0.8,0.8,0.8c0.6,0,1-0.4,1.1-0.8l0-0.3V14.7z"/>
	<rect x="139.5" y="10.2" class="st0" width="0.9" height="6.9"/>
	<path class="st0" d="M142.7,11.1c0,0.3-0.2,0.5-0.5,0.5c-0.3,0-0.5-0.2-0.5-0.5c0-0.3,0.2-0.5,0.5-0.5
		C142.5,10.6,142.7,10.8,142.7,11.1 M141.8,12.4h0.9v4.7h-0.9V12.4z"/>
	<path class="st0" d="M147.4,16c0,0.4,0,0.8,0.1,1.1h-0.8l-0.1-0.6h0c-0.3,0.4-0.8,0.7-1.4,0.7c-0.9,0-1.4-0.7-1.4-1.3
		c0-1.1,1-1.8,2.8-1.7V14c0-0.4-0.1-1.1-1.1-1.1c-0.4,0-0.9,0.1-1.2,0.3l-0.2-0.6c0.4-0.3,0.9-0.4,1.5-0.4c1.4,0,1.8,1,1.8,1.9V16z
		 M146.6,14.7c-0.9,0-2,0.1-2,1.1c0,0.6,0.4,0.8,0.8,0.8c0.6,0,1-0.4,1.1-0.8l0-0.3V14.7z"/>
	<path class="st0" d="M148.8,13.7c0-0.5,0-0.9,0-1.3h0.8l0,0.8h0c0.2-0.4,0.8-0.9,1.6-0.9c0.6,0,1.7,0.4,1.7,2v2.8H152v-2.7
		c0-0.8-0.3-1.4-1.1-1.4c-0.6,0-1,0.4-1.1,0.9c0,0.1-0.1,0.3-0.1,0.4v2.8h-0.9V13.7z"/>
	<path class="st1" d="M0,16.4c1.2-0.2,3.3-0.4,5.4-0.4c2.8,0,4.4,0.3,5.8,1.3c1.3,0.8,2.1,2.1,2.1,3.8c0,1.9-1.2,3.6-3.4,4.4v0.1
		c2.1,0.5,4.1,2.2,4.1,5.1c0,1.8-0.8,3.2-2,4.2c-1.5,1.3-3.8,1.9-7.6,1.9c-2.1,0-3.6-0.1-4.6-0.3V16.4z M3.7,24.4h1.9
		c2.6,0,4-1.2,4-2.9c0-1.9-1.5-2.8-3.8-2.8c-1.1,0-1.7,0.1-2.1,0.1V24.4z M3.7,33.8c0.5,0.1,1.1,0.1,2,0.1c2.4,0,4.5-0.9,4.5-3.4
		c0-2.4-2.1-3.3-4.6-3.3H3.7V33.8z"/>
	<path class="st1" d="M17.8,16c-0.5,0.4-0.8,0.9-0.8,1.6c0,1.1,0.8,2,2.1,2c1.3,0,2.1-0.9,2.1-2c0-1.1-0.8-2-2.1-2
		C18.6,15.6,18.2,15.8,17.8,16"/>
	<rect x="17.3" y="21.7" class="st1" width="3.7" height="14.7"/>
	<path class="st1" d="M39,29c0,5.4-3.8,7.8-7.6,7.8c-4.2,0-7.4-2.9-7.4-7.6c0-4.8,3.2-7.8,7.6-7.8C36.1,21.4,39,24.5,39,29
		 M27.9,29.1c0,2.8,1.4,5,3.7,5c2.1,0,3.6-2.1,3.6-5c0-2.3-1-4.9-3.6-4.9C29,24.1,27.9,26.7,27.9,29.1"/>
	<path class="st1" d="M55.6,15v17.3c0,1.5,0.1,3.1,0.1,4.1h-3.3l-0.1-2.3h-0.1c-0.9,1.6-2.7,2.7-4.8,2.7c-3.5,0-6.3-3-6.3-7.5
		c0-4.9,3.1-7.9,6.6-7.9c2,0,3.5,0.8,4.1,1.9h0.1V15H55.6z M51.9,27.9c0-0.3,0-0.7-0.1-1c-0.3-1.5-1.5-2.6-3.2-2.6
		c-2.4,0-3.7,2.1-3.7,4.9c0,2.7,1.3,4.7,3.7,4.7c1.5,0,2.8-1,3.2-2.6c0.1-0.3,0.1-0.7,0.1-1.1V27.9z"/>
	<rect x="59.6" y="21.7" class="st1" width="3.7" height="14.7"/>
	<path class="st1" d="M69.7,21.7l2.4,7.5c0.4,1.3,0.7,2.5,1,3.7h0.1c0.3-1.2,0.6-2.4,1-3.7l2.3-7.5h3.9l-5.6,14.7h-3.7l-5.5-14.7
		H69.7z"/>
	<path class="st1" d="M85,30.2c0.1,2.7,2.2,3.8,4.5,3.8c1.7,0,3-0.2,4.1-0.7l0.5,2.6c-1.3,0.5-3,0.9-5.1,0.9c-4.8,0-7.6-3-7.6-7.5
		c0-4.1,2.5-7.9,7.2-7.9c4.8,0,6.3,3.9,6.3,7.2c0,0.7-0.1,1.2-0.1,1.6H85z M91.4,27.6c0-1.4-0.6-3.6-3.1-3.6c-2.3,0-3.3,2.1-3.4,3.6
		H91.4z"/>
	<path class="st1" d="M97.9,26.5c0-2,0-3.4-0.1-4.7h3.2l0.1,2.8h0.1c0.7-2.1,2.4-3.1,4-3.1c0.4,0,0.6,0,0.9,0.1V25
		c-0.3-0.1-0.6-0.1-1.1-0.1c-1.8,0-3,1.1-3.3,2.8c-0.1,0.3-0.1,0.7-0.1,1.1v7.6h-3.7V26.5z"/>
	<path class="st1" d="M108.5,33.1c0.8,0.5,2.4,1.1,3.8,1.1c1.6,0,2.4-0.7,2.4-1.6c0-1-0.6-1.5-2.4-2.1c-2.9-1-4.1-2.6-4.1-4.3
		c0-2.6,2.1-4.6,5.6-4.6c1.6,0,3.1,0.4,3.9,0.9l-0.7,2.6c-0.6-0.4-1.8-0.8-3.1-0.8c-1.3,0-2.1,0.6-2.1,1.5c0,0.9,0.7,1.4,2.6,2.1
		c2.7,1,3.9,2.3,3.9,4.5c0,2.7-2.1,4.6-6,4.6c-1.8,0-3.4-0.5-4.5-1.1L108.5,33.1z"/>
	<rect x="121.3" y="21.7" class="st1" width="3.7" height="14.7"/>
	<path class="st1" d="M133.3,18v3.8h3.5v2.8h-3.5V31c0,1.8,0.5,2.7,1.9,2.7c0.7,0,1-0.1,1.5-0.2l0.1,2.8c-0.5,0.2-1.5,0.4-2.7,0.4
		c-1.4,0-2.5-0.5-3.2-1.2c-0.8-0.8-1.1-2.2-1.1-4.1v-6.9h-2.1v-2.8h2.1V19L133.3,18z"/>
	<path class="st1" d="M142.2,21.7l2.7,7.9c0.3,0.9,0.6,2,0.8,2.9h0.1c0.2-0.8,0.5-1.9,0.8-2.9l2.3-7.9h4l-3.7,10
		c-2,5.5-3.4,8-5.1,9.5c-1.5,1.3-3,1.8-3.9,1.9l-0.8-3.1c0.6-0.2,1.4-0.5,2.2-1c0.7-0.5,1.5-1.3,2-2.3c0.2-0.3,0.2-0.5,0.2-0.7
		c0-0.2,0-0.4-0.2-0.7l-5.4-13.5H142.2z"/>
	<polygon class="st2" points="40.4,15.6 39.7,21.5 40,22.8 40.9,15.7 42.2,13.4 45.5,8.8 48.8,6.5 58,5.2 50.8,4.5 44,7.8 
		40.4,12.8 	"/>
	<polygon class="st3" points="56.5,0 53.8,0.2 51.4,3.1 52,0.3 49.7,0.6 50.1,5.1 50.8,4.9 56.4,5 56.6,5.1 51,5.3 48.8,6.4 51.5,9 
		52.4,9.1 53,9 53.7,9.2 54.8,9.3 59.4,9.2 56.6,5.2 59.8,9.2 60.3,9.1 57,4.8 	"/>
	<path class="st4" d="M45.1,8.7l-3.7,4.6l-0.6,2.9c5-1.5,10.2-7,10.2-7l-2.2-2.8L45.1,8.7z"/>
	<path class="st4" d="M44.6,8.4l5.4-3.2l-0.4-4.6c0,0-5.8,4.1-8.9,8.1c-2,2.5-0.4,6.3-0.4,6.3l-0.1,1l0.5-2.7L44.6,8.4z"/>
	<polygon class="st3" points="45.9,13.6 42.8,11.6 46.9,12.8 	"/>
	<polygon class="st3" points="47.1,6.9 46.2,3.4 46.5,7.3 	"/>
	<polygon class="st3" points="47.5,2.3 47.8,6.6 47.1,2.6 	"/>
	<polygon class="st4" points="55.5,9.3 51.1,5.4 56.7,9.2 	"/>
	<polygon class="st3" points="42,12.6 44.2,14.7 42.4,12.1 	"/>
	<polygon class="st4" points="40.8,16.5 42.7,16.4 40.7,17.4 	"/>
	<polygon class="st4" points="40.7,17.6 42,17.6 40.6,18.2 	"/>
	<polygon class="st4" points="53,9 50.7,5.5 52.4,9.1 	"/>
	<polygon class="st5" points="62,2.8 58.3,4 61.5,2 56.5,0 56.6,5.1 60.7,9 63.6,8.1 63.3,7.1 64,6 	"/>
	<polygon class="st6" points="63.6,8.1 56.6,5 63.3,7.1 	"/>
	<polygon class="st7" points="63.3,7.1 56.7,5 63.7,6.5 	"/>
	<polygon class="st8" points="50.8,5.5 52.7,8.6 53,9 53.7,9.2 	"/>
	<polygon class="st9" points="52.7,8.6 53,9 53,9 	"/>
	<polygon class="st10" points="21.4,7.5 24.9,6.7 30,8.7 36.6,18.2 37.2,19.3 37.8,21.8 38.3,21.2 37.8,19.2 37,17.9 30.6,8.2 
		24.8,5.2 17.1,8.5 	"/>
	<polygon class="st11" points="20.9,7.5 22.2,7 25,6.2 24.2,2.6 14.7,9 27.4,10.2 25,6.6 24.9,6.6 	"/>
	<polygon class="st12" points="30.4,8.7 29.3,8.4 27.4,10.2 28.2,10.9 28.3,10.9 35,17.6 36.5,18.2 36.6,18.1 33.6,13.5 	"/>
	<polygon class="st12" points="30.7,8.5 37,17.9 37.3,17.9 38.3,16.2 37.6,11.2 33.9,5.7 29.8,7.8 	"/>
	<polygon class="st13" points="29.6,8 30.7,8.5 33.9,5.7 24.2,2.6 25,6.2 25.6,6.4 	"/>
	<polygon class="st13" points="24.9,6.5 24.3,9.9 28.3,10.9 28.3,11 30.4,8.7 	"/>
	<polygon class="st14" points="31.5,14.1 33.6,13.5 35.7,16.7 34.5,17.1 	"/>
	<polygon class="st14" points="34,13.3 37.6,11.2 38.3,16.3 36.1,16.6 	"/>
</g>
</svg>
